# xmcd
# 
# Track frame offsets:
#     225
#     32023
#     63040
#     93758
#     106420
#     128163
#     159423
#     183133
# 
# Disc length: 2820
# 
# Revision: 0
# Processed by: cddbd v1.5.2PL0 Copyright (c) Steve Scherf et al.
# Submitted via: BonkEnc v1.0.8
# 
DISCID=560b0108
DTITLE=Mal Waldron - Breaking New Ground
DYEAR=1983
DGENRE=Contemporary Jazz
TTITLE0=Dans La Cuisine D'Alibi
TTITLE1=Suicide is Painless
TTITLE2=After the Love Has Gone
TTITLE3=Beat It
TTITLE4=You Are The Sunshine Of My Life
TTITLE5=Gymnopedie No.2
TTITLE6=Everything Must Change
TTITLE7=Thy Freedom Come
EXTD=YEAR: 1987
EXTT0=
EXTT1=
EXTT2=
EXTT3=
EXTT4=
EXTT5=
EXTT6=
EXTT7=
PLAYORDER=
